<svg width="94" height="35" viewBox="0 0 94 35" fill="none" xmlns="http://www.w3.org/2000/svg">
<path d="M12.4615 26.8464C9.89065 26.8464 7.6709 26.2856 5.80227 25.164C3.94555 24.0424 2.51134 22.4734 1.49966 20.4569C0.499888 18.4405 0 16.0959 0 13.4232C0 10.7505 0.499888 8.4059 1.49966 6.38944C2.51134 4.37297 3.94555 2.80395 5.80227 1.68237C7.6709 0.560791 9.89065 0 12.4615 0C15.4132 0 17.8889 0.7338 19.8884 2.2014C21.8999 3.669 23.3162 5.65563 24.1375 8.1613L19.2457 9.52151C18.7696 7.95846 17.9662 6.74739 16.8355 5.8883C15.7048 5.01729 14.2468 4.58178 12.4615 4.58178C10.8309 4.58178 9.46812 4.9457 8.37313 5.67353C7.29004 6.40137 6.47474 7.4275 5.92725 8.75192C5.37975 10.0763 5.106 11.6334 5.106 13.4232C5.106 15.2129 5.37975 16.77 5.92725 18.0945C6.47474 19.4189 7.29004 20.445 8.37313 21.1728C9.46812 21.9007 10.8309 22.2646 12.4615 22.2646C14.2468 22.2646 15.7048 21.8291 16.8355 20.9581C17.9662 20.087 18.7696 18.876 19.2457 17.3249L24.1375 18.6851C23.3162 21.1907 21.8999 23.1774 19.8884 24.645C17.8889 26.1126 15.4132 26.8464 12.4615 26.8464Z" fill="#526ED3"/>
<path d="M33.4244 26.8464C32.0438 26.8464 30.8714 26.5839 29.9074 26.0589C28.9552 25.5219 28.2292 24.812 27.7293 23.9291C27.2413 23.0342 26.9973 22.0498 26.9973 20.976C26.9973 20.0811 27.1342 19.2638 27.4079 18.524C27.6817 17.7842 28.1221 17.1339 28.7291 16.5732C29.348 16.0004 30.1752 15.5232 31.2106 15.1414C31.9248 14.8789 32.7758 14.6462 33.7636 14.4433C34.7515 14.2405 35.8703 14.0496 37.12 13.8706C38.3698 13.6797 39.7445 13.4709 41.2441 13.2442L39.4945 14.2107C39.4945 13.0652 39.2208 12.224 38.6733 11.6871C38.1258 11.1502 37.2093 10.8817 35.9239 10.8817C35.2098 10.8817 34.4659 11.0547 33.6922 11.4008C32.9186 11.7468 32.3771 12.3613 32.0676 13.2442L27.6757 11.8482C28.1637 10.2493 29.0802 8.94879 30.4251 7.94653C31.77 6.94426 33.603 6.44313 35.9239 6.44313C37.6259 6.44313 39.1374 6.70563 40.4586 7.23062C41.7797 7.75562 42.7795 8.66243 43.4579 9.95105C43.8388 10.667 44.0649 11.3829 44.1363 12.0988C44.2077 12.8147 44.2435 13.6141 44.2435 14.497V26.3094H39.9944V22.3362L40.6014 23.1595C39.6611 24.46 38.6435 25.4026 37.5485 25.9873C36.4654 26.56 35.0907 26.8464 33.4244 26.8464ZM34.4599 23.0163C35.3526 23.0163 36.1024 22.8612 36.7094 22.551C37.3283 22.2288 37.8163 21.8649 38.1734 21.4592C38.5423 21.0535 38.7923 20.7135 38.9232 20.439C39.1732 19.914 39.316 19.3055 39.3517 18.6135C39.3993 17.9095 39.4231 17.3249 39.4231 16.8595L40.8514 17.2175C39.4112 17.4561 38.2448 17.6589 37.3521 17.826C36.4595 17.9811 35.7394 18.1243 35.1919 18.2555C34.6444 18.3868 34.1624 18.53 33.7458 18.6851C33.2697 18.876 32.8829 19.0848 32.5853 19.3115C32.2997 19.5263 32.0855 19.7649 31.9426 20.0274C31.8117 20.2899 31.7462 20.5822 31.7462 20.9044C31.7462 21.3458 31.8534 21.7277 32.0676 22.0498C32.2937 22.36 32.6091 22.5987 33.0138 22.7657C33.4185 22.9328 33.9005 23.0163 34.4599 23.0163Z" fill="#526ED3"/>
<path d="M58.3477 26.8464C56.4315 26.8464 54.8306 26.3989 53.5452 25.5041C52.2598 24.6092 51.2898 23.3921 50.6352 21.8529C49.9924 20.3138 49.6711 18.5777 49.6711 16.6447C49.6711 14.7118 49.9924 12.9757 50.6352 11.4366C51.2779 9.89736 52.2241 8.68033 53.4738 7.78545C54.7235 6.89057 56.2648 6.44313 58.0978 6.44313C59.9426 6.44313 61.5494 6.8846 62.9181 7.76755C64.2869 8.6505 65.3461 9.86157 66.096 11.4008C66.8577 12.928 67.2386 14.676 67.2386 16.6447C67.2386 18.5777 66.8637 20.3138 66.1138 21.8529C65.3759 23.3921 64.3404 24.6092 63.0074 25.5041C61.6744 26.3989 60.1211 26.8464 58.3477 26.8464ZM48.8498 34.9003V6.98006H53.1346V20.2243H53.7416V34.9003H48.8498ZM57.5622 22.5152C58.6096 22.5152 59.4665 22.2527 60.133 21.7277C60.7995 21.2027 61.2935 20.4987 61.6148 19.6157C61.9362 18.7209 62.0969 17.7305 62.0969 16.6447C62.0969 15.5709 61.9302 14.5925 61.597 13.7095C61.2637 12.8147 60.746 12.1047 60.0438 11.5797C59.3534 11.0428 58.4667 10.7743 57.3836 10.7743C56.372 10.7743 55.5507 11.0189 54.9199 11.5081C54.301 11.9973 53.8487 12.6834 53.5631 13.5664C53.2774 14.4493 53.1346 15.4754 53.1346 16.6447C53.1346 17.8141 53.2774 18.8402 53.5631 19.7231C53.8487 20.6061 54.3129 21.2922 54.9556 21.7814C55.6102 22.2706 56.4791 22.5152 57.5622 22.5152Z" fill="#526ED3"/>
<path d="M72.9335 34.9003L76.6469 24.6629L76.7183 27.6697L68.3273 6.98006H73.3619L79.0035 21.6203H77.8609L83.4668 6.98006H88.3229L77.4324 34.9003H72.9335Z" fill="#526ED3"/>
<path d="M88.7597 26.3094V21.4413H93.6158V26.3094H88.7597Z" fill="#526ED3"/>
</svg>
